{
	"asset":{
		"generator":"Khronos glTF Blender I/O v4.3.47",
		"version":"2.0"
	},
	"scene":0,
	"scenes":[
		{
			"name":"Scene",
			"nodes":[
				0
			]
		}
	],
	"nodes":[
		{
			"mesh":0,
			"name":"node0",
			"rotation":[
				0,
				-1,
				0,
				4.371138828673793e-08
			]
		}
	],
	"materials":[
		{
			"doubleSided":true,
			"name":"Part__Feature",
			"pbrMetallicRoughness":{
				"baseColorFactor":[
					0.9725490808486938,
					0.9686274528503418,
					0.9294118285179138,
					1
				],
				"metallicFactor":0,
				"roughnessFactor":0.5
			}
		}
	],
	"meshes":[
		{
			"name":"Part__Feature",
			"primitives":[
				{
					"attributes":{
						"POSITION":0,
						"NORMAL":1
					},
					"indices":2,
					"material":0
				}
			]
		}
	],
	"accessors":[
		{
			"bufferView":0,
			"componentType":5126,
			"count":926776,
			"max":[
				0.18400001525878906,
				0.11149999499320984,
				0.08149471133947372
			],
			"min":[
				-0.07999999821186066,
				-3.5622456096007227e-09,
				-0.3468998968601227
			],
			"type":"VEC3"
		},
		{
			"bufferView":1,
			"componentType":5126,
			"count":926776,
			"type":"VEC3"
		},
		{
			"bufferView":2,
			"componentType":5125,
			"count":1029642,
			"type":"SCALAR"
		}
	],
	"bufferViews":[
		{
			"buffer":0,
			"byteLength":11121312,
			"byteOffset":0,
			"target":34962
		},
		{
			"buffer":0,
			"byteLength":11121312,
			"byteOffset":11121312,
			"target":34962
		},
		{
			"buffer":0,
			"byteLength":4118568,
			"byteOffset":22242624,
			"target":34963
		}
	],
	"buffers":[
		{
			"byteLength":26361192,
			"uri":"base_link.bin"
		}
	]
}
