{
	"asset":{
		"generator":"Khronos glTF Blender I/O v4.3.47",
		"version":"2.0"
	},
	"scene":0,
	"scenes":[
		{
			"name":"Scene",
			"nodes":[
				0
			]
		}
	],
	"nodes":[
		{
			"mesh":0,
			"name":"node0.054"
		}
	],
	"materials":[
		{
			"doubleSided":true,
			"name":"mat_0.001",
			"pbrMetallicRoughness":{
				"baseColorFactor":[
					0.12213877588510513,
					0.12213877588510513,
					0.12213877588510513,
					1
				],
				"metallicFactor":0.5,
				"roughnessFactor":0.5
			}
		},
		{
			"doubleSided":true,
			"name":"gripper_vgc10.002",
			"pbrMetallicRoughness":{
				"baseColorFactor":[
					0.6784313917160034,
					0.7098039984703064,
					0.7411764860153198,
					1
				],
				"metallicFactor":0,
				"roughnessFactor":0.5
			}
		},
		{
			"doubleSided":true,
			"name":"mat_1.001",
			"pbrMetallicRoughness":{
				"baseColorFactor":[
					0.44520121812820435,
					0.44520121812820435,
					0.44520121812820435,
					1
				],
				"metallicFactor":0.5,
				"roughnessFactor":0.5
			}
		}
	],
	"meshes":[
		{
			"name":"gripper_vgc10.054",
			"primitives":[
				{
					"attributes":{
						"POSITION":0,
						"NORMAL":1
					},
					"indices":2,
					"material":0
				},
				{
					"attributes":{
						"POSITION":3,
						"NORMAL":4
					},
					"indices":5,
					"material":1
				},
				{
					"attributes":{
						"POSITION":6,
						"NORMAL":7
					},
					"indices":8,
					"material":2
				}
			]
		}
	],
	"accessors":[
		{
			"bufferView":0,
			"componentType":5126,
			"count":6160,
			"max":[
				0.05001699924468994,
				0.05001699924468994,
				0.021800000220537186
			],
			"min":[
				-0.05001699924468994,
				-0.05001699924468994,
				0.0012880000285804272
			],
			"type":"VEC3"
		},
		{
			"bufferView":1,
			"componentType":5126,
			"count":6160,
			"type":"VEC3"
		},
		{
			"bufferView":2,
			"componentType":5123,
			"count":6504,
			"type":"SCALAR"
		},
		{
			"bufferView":3,
			"componentType":5126,
			"count":68316,
			"max":[
				0.019997000694274902,
				0.019997000694274902,
				0.2125989943742752
			],
			"min":[
				-0.019997000694274902,
				-0.019997000694274902,
				0.17829999327659607
			],
			"type":"VEC3"
		},
		{
			"bufferView":4,
			"componentType":5126,
			"count":68316,
			"type":"VEC3"
		},
		{
			"bufferView":5,
			"componentType":5125,
			"count":70914,
			"type":"SCALAR"
		},
		{
			"bufferView":6,
			"componentType":5126,
			"count":121480,
			"max":[
				0.04999999701976776,
				0.04999999701976776,
				0.18479999899864197
			],
			"min":[
				-0.04999999701976776,
				-0.04999999701976776,
				-0.01119999960064888
			],
			"type":"VEC3"
		},
		{
			"bufferView":7,
			"componentType":5126,
			"count":121480,
			"type":"VEC3"
		},
		{
			"bufferView":8,
			"componentType":5125,
			"count":154950,
			"type":"SCALAR"
		}
	],
	"bufferViews":[
		{
			"buffer":0,
			"byteLength":73920,
			"byteOffset":0,
			"target":34962
		},
		{
			"buffer":0,
			"byteLength":73920,
			"byteOffset":73920,
			"target":34962
		},
		{
			"buffer":0,
			"byteLength":13008,
			"byteOffset":147840,
			"target":34963
		},
		{
			"buffer":0,
			"byteLength":819792,
			"byteOffset":160848,
			"target":34962
		},
		{
			"buffer":0,
			"byteLength":819792,
			"byteOffset":980640,
			"target":34962
		},
		{
			"buffer":0,
			"byteLength":283656,
			"byteOffset":1800432,
			"target":34963
		},
		{
			"buffer":0,
			"byteLength":1457760,
			"byteOffset":2084088,
			"target":34962
		},
		{
			"buffer":0,
			"byteLength":1457760,
			"byteOffset":3541848,
			"target":34962
		},
		{
			"buffer":0,
			"byteLength":619800,
			"byteOffset":4999608,
			"target":34963
		}
	],
	"buffers":[
		{
			"byteLength":5619408,
			"uri":"gripper_vgc10_1L.bin"
		}
	]
}
