{
	"asset":{
		"generator":"Khronos glTF Blender I/O v4.3.47",
		"version":"2.0"
	},
	"scene":0,
	"scenes":[
		{
			"name":"Scene",
			"nodes":[
				0
			]
		}
	],
	"nodes":[
		{
			"mesh":0,
			"name":"node2"
		}
	],
	"materials":[
		{
			"doubleSided":true,
			"name":"Part__Feature006",
			"pbrMetallicRoughness":{
				"baseColorFactor":[
					0.6274510025978088,
					0.6274510025978088,
					0.6274510025978088,
					1
				],
				"metallicFactor":0,
				"roughnessFactor":0.5
			}
		},
		{
			"doubleSided":true,
			"name":"Part__Feature004",
			"pbrMetallicRoughness":{
				"baseColorFactor":[
					0.5647059082984924,
					0.5568627715110779,
					0.545098066329956,
					1
				],
				"metallicFactor":0,
				"roughnessFactor":0.5
			}
		},
		{
			"doubleSided":true,
			"name":"Part__Feature005",
			"pbrMetallicRoughness":{
				"baseColorFactor":[
					0.6274510025978088,
					0.6274510025978088,
					0.6274510025978088,
					1
				],
				"metallicFactor":0,
				"roughnessFactor":0.5
			}
		}
	],
	"meshes":[
		{
			"name":"Part__Feature006",
			"primitives":[
				{
					"attributes":{
						"POSITION":0,
						"NORMAL":1
					},
					"indices":2,
					"material":0
				},
				{
					"attributes":{
						"POSITION":3,
						"NORMAL":4
					},
					"indices":5,
					"material":1
				},
				{
					"attributes":{
						"POSITION":6,
						"NORMAL":7
					},
					"indices":8,
					"material":2
				}
			]
		}
	],
	"accessors":[
		{
			"bufferView":0,
			"componentType":5126,
			"count":25749,
			"max":[
				-0.02545582503080368,
				0.04277980327606201,
				0.14250001311302185
			],
			"min":[
				-0.04277942329645157,
				0.02545630931854248,
				0.1305004060268402
			],
			"type":"VEC3"
		},
		{
			"bufferView":1,
			"componentType":5126,
			"count":25749,
			"type":"VEC3"
		},
		{
			"bufferView":2,
			"componentType":5123,
			"count":26295,
			"type":"SCALAR"
		},
		{
			"bufferView":3,
			"componentType":5126,
			"count":342442,
			"max":[
				0.04774921387434006,
				0.04750031232833862,
				0.16000023484230042
			],
			"min":[
				-0.05719998478889465,
				-0.047496497631073,
				0.082000233232975
			],
			"type":"VEC3"
		},
		{
			"bufferView":4,
			"componentType":5126,
			"count":342442,
			"type":"VEC3"
		},
		{
			"bufferView":5,
			"componentType":5125,
			"count":365220,
			"type":"SCALAR"
		},
		{
			"bufferView":6,
			"componentType":5126,
			"count":10097,
			"max":[
				0.05075422674417496,
				-0.019890308380126953,
				0.14289793372154236
			],
			"min":[
				0.024561621248722076,
				-0.04579317569732666,
				0.1221025362610817
			],
			"type":"VEC3"
		},
		{
			"bufferView":7,
			"componentType":5126,
			"count":10097,
			"type":"VEC3"
		},
		{
			"bufferView":8,
			"componentType":5123,
			"count":10422,
			"type":"SCALAR"
		}
	],
	"bufferViews":[
		{
			"buffer":0,
			"byteLength":308988,
			"byteOffset":0,
			"target":34962
		},
		{
			"buffer":0,
			"byteLength":308988,
			"byteOffset":308988,
			"target":34962
		},
		{
			"buffer":0,
			"byteLength":52590,
			"byteOffset":617976,
			"target":34963
		},
		{
			"buffer":0,
			"byteLength":4109304,
			"byteOffset":670568,
			"target":34962
		},
		{
			"buffer":0,
			"byteLength":4109304,
			"byteOffset":4779872,
			"target":34962
		},
		{
			"buffer":0,
			"byteLength":1460880,
			"byteOffset":8889176,
			"target":34963
		},
		{
			"buffer":0,
			"byteLength":121164,
			"byteOffset":10350056,
			"target":34962
		},
		{
			"buffer":0,
			"byteLength":121164,
			"byteOffset":10471220,
			"target":34962
		},
		{
			"buffer":0,
			"byteLength":20844,
			"byteOffset":10592384,
			"target":34963
		}
	],
	"buffers":[
		{
			"byteLength":10613228,
			"uri":"link6.bin"
		}
	]
}
