{
	"asset":{
		"generator":"Khronos glTF Blender I/O v4.3.47",
		"version":"2.0"
	},
	"scene":0,
	"scenes":[
		{
			"name":"Scene",
			"nodes":[
				0
			]
		}
	],
	"nodes":[
		{
			"mesh":0,
			"name":"base"
		}
	],
	"materials":[
		{
			"doubleSided":true,
			"name":"Part__Feature051.001",
			"pbrMetallicRoughness":{
				"baseColorFactor":[
					0.7529412508010864,
					0.7529412508010864,
					0.7529412508010864,
					1
				],
				"metallicFactor":0,
				"roughnessFactor":0.5
			}
		},
		{
			"doubleSided":true,
			"name":"Part__Feature050.001",
			"pbrMetallicRoughness":{
				"baseColorFactor":[
					0.2862745225429535,
					0.615686297416687,
					0.8549019694328308,
					1
				],
				"metallicFactor":0,
				"roughnessFactor":0.5
			}
		},
		{
			"doubleSided":true,
			"name":"Part__Feature052.001",
			"pbrMetallicRoughness":{
				"baseColorFactor":[
					0.7529412508010864,
					0.7529412508010864,
					0.7529412508010864,
					1
				],
				"metallicFactor":0,
				"roughnessFactor":0.5
			}
		},
		{
			"doubleSided":true,
			"name":"Part__Feature053.001",
			"pbrMetallicRoughness":{
				"baseColorFactor":[
					0.95686274766922,
					0.9490196108818054,
					0.9607843160629272,
					1
				],
				"metallicFactor":0,
				"roughnessFactor":0.5
			}
		},
		{
			"doubleSided":true,
			"name":"Part__Feature058.001",
			"pbrMetallicRoughness":{
				"metallicFactor":0,
				"roughnessFactor":0.5
			}
		},
		{
			"doubleSided":true,
			"name":"Part__Feature059.001",
			"pbrMetallicRoughness":{
				"metallicFactor":0,
				"roughnessFactor":0.5
			}
		},
		{
			"doubleSided":true,
			"name":"Part__Feature068.001",
			"pbrMetallicRoughness":{
				"baseColorFactor":[
					0,
					1,
					0,
					1
				],
				"metallicFactor":0,
				"roughnessFactor":0.5
			}
		},
		{
			"doubleSided":true,
			"name":"Part__Feature069.001",
			"pbrMetallicRoughness":{
				"baseColorFactor":[
					0.95686274766922,
					0.9490196108818054,
					0.9607843160629272,
					1
				],
				"metallicFactor":0,
				"roughnessFactor":0.5
			}
		}
	],
	"meshes":[
		{
			"name":"base",
			"primitives":[
				{
					"attributes":{
						"POSITION":0,
						"NORMAL":1
					},
					"indices":2,
					"material":0
				},
				{
					"attributes":{
						"POSITION":3,
						"NORMAL":4
					},
					"indices":5,
					"material":1
				},
				{
					"attributes":{
						"POSITION":6,
						"NORMAL":7
					},
					"indices":8,
					"material":2
				},
				{
					"attributes":{
						"POSITION":9,
						"NORMAL":10
					},
					"indices":11,
					"material":3
				},
				{
					"attributes":{
						"POSITION":12,
						"NORMAL":13
					},
					"indices":14,
					"material":4
				},
				{
					"attributes":{
						"POSITION":15,
						"NORMAL":16
					},
					"indices":17,
					"material":5
				},
				{
					"attributes":{
						"POSITION":18,
						"NORMAL":19
					},
					"indices":20,
					"material":6
				},
				{
					"attributes":{
						"POSITION":21,
						"NORMAL":22
					},
					"indices":23,
					"material":7
				}
			]
		}
	],
	"accessors":[
		{
			"bufferView":0,
			"componentType":5126,
			"count":130532,
			"max":[
				0.03299326077103615,
				0.030578380450606346,
				0.011200003325939178
			],
			"min":[
				-0.03299317881464958,
				-0.03019999898970127,
				7.450580596923828e-09
			],
			"type":"VEC3"
		},
		{
			"bufferView":1,
			"componentType":5126,
			"count":130532,
			"type":"VEC3"
		},
		{
			"bufferView":2,
			"componentType":5125,
			"count":162948,
			"type":"SCALAR"
		},
		{
			"bufferView":3,
			"componentType":5126,
			"count":45388,
			"max":[
				0.03548895940184593,
				0.035499997437000275,
				0.013200007379055023
			],
			"min":[
				-0.03548895940184593,
				-0.035499997437000275,
				0.00920000672340393
			],
			"type":"VEC3"
		},
		{
			"bufferView":4,
			"componentType":5126,
			"count":45388,
			"type":"VEC3"
		},
		{
			"bufferView":5,
			"componentType":5123,
			"count":63216,
			"type":"SCALAR"
		},
		{
			"bufferView":6,
			"componentType":5126,
			"count":69316,
			"max":[
				0.015919309109449387,
				-0.018793240189552307,
				0.011200003325939178
			],
			"min":[
				-0.015919309109449387,
				-0.039400000125169754,
				0.0037000030279159546
			],
			"type":"VEC3"
		},
		{
			"bufferView":7,
			"componentType":5126,
			"count":69316,
			"type":"VEC3"
		},
		{
			"bufferView":8,
			"componentType":5125,
			"count":72780,
			"type":"SCALAR"
		},
		{
			"bufferView":9,
			"componentType":5126,
			"count":46708,
			"max":[
				0.022499999031424522,
				0.006000000052154064,
				0.009550005197525024
			],
			"min":[
				0.01249999925494194,
				-0.006000000052154064,
				0.005250900983810425
			],
			"type":"VEC3"
		},
		{
			"bufferView":10,
			"componentType":5126,
			"count":46708,
			"type":"VEC3"
		},
		{
			"bufferView":11,
			"componentType":5123,
			"count":51576,
			"type":"SCALAR"
		},
		{
			"bufferView":12,
			"componentType":5126,
			"count":98782,
			"max":[
				0.04500000178813934,
				0.0354989692568779,
				0.09440000355243683
			],
			"min":[
				-0.04500000178813934,
				-0.0354989692568779,
				0.013200007379055023
			],
			"type":"VEC3"
		},
		{
			"bufferView":13,
			"componentType":5126,
			"count":98782,
			"type":"VEC3"
		},
		{
			"bufferView":14,
			"componentType":5125,
			"count":126444,
			"type":"SCALAR"
		},
		{
			"bufferView":15,
			"componentType":5126,
			"count":15630,
			"max":[
				0.04500000178813934,
				0.029999999329447746,
				0.10795000195503235
			],
			"min":[
				-0.04500000178813934,
				-0.029999999329447746,
				0.09540000557899475
			],
			"type":"VEC3"
		},
		{
			"bufferView":16,
			"componentType":5126,
			"count":15630,
			"type":"VEC3"
		},
		{
			"bufferView":17,
			"componentType":5123,
			"count":27024,
			"type":"SCALAR"
		},
		{
			"bufferView":18,
			"componentType":5126,
			"count":62788,
			"max":[
				0.04500000178813934,
				0.029999999329447746,
				0.09690000116825104
			],
			"min":[
				-0.04500000178813934,
				-0.029999999329447746,
				0.09381477534770966
			],
			"type":"VEC3"
		},
		{
			"bufferView":19,
			"componentType":5126,
			"count":62788,
			"type":"VEC3"
		},
		{
			"bufferView":20,
			"componentType":5123,
			"count":80148,
			"type":"SCALAR"
		},
		{
			"bufferView":21,
			"componentType":5126,
			"count":813858,
			"max":[
				0.04500000178813934,
				0.029999999329447746,
				0.11155000329017639
			],
			"min":[
				-0.04500000178813934,
				-0.029999999329447746,
				0.10095000267028809
			],
			"type":"VEC3"
		},
		{
			"bufferView":22,
			"componentType":5126,
			"count":813858,
			"type":"VEC3"
		},
		{
			"bufferView":23,
			"componentType":5125,
			"count":973740,
			"type":"SCALAR"
		}
	],
	"bufferViews":[
		{
			"buffer":0,
			"byteLength":1566384,
			"byteOffset":0,
			"target":34962
		},
		{
			"buffer":0,
			"byteLength":1566384,
			"byteOffset":1566384,
			"target":34962
		},
		{
			"buffer":0,
			"byteLength":651792,
			"byteOffset":3132768,
			"target":34963
		},
		{
			"buffer":0,
			"byteLength":544656,
			"byteOffset":3784560,
			"target":34962
		},
		{
			"buffer":0,
			"byteLength":544656,
			"byteOffset":4329216,
			"target":34962
		},
		{
			"buffer":0,
			"byteLength":126432,
			"byteOffset":4873872,
			"target":34963
		},
		{
			"buffer":0,
			"byteLength":831792,
			"byteOffset":5000304,
			"target":34962
		},
		{
			"buffer":0,
			"byteLength":831792,
			"byteOffset":5832096,
			"target":34962
		},
		{
			"buffer":0,
			"byteLength":291120,
			"byteOffset":6663888,
			"target":34963
		},
		{
			"buffer":0,
			"byteLength":560496,
			"byteOffset":6955008,
			"target":34962
		},
		{
			"buffer":0,
			"byteLength":560496,
			"byteOffset":7515504,
			"target":34962
		},
		{
			"buffer":0,
			"byteLength":103152,
			"byteOffset":8076000,
			"target":34963
		},
		{
			"buffer":0,
			"byteLength":1185384,
			"byteOffset":8179152,
			"target":34962
		},
		{
			"buffer":0,
			"byteLength":1185384,
			"byteOffset":9364536,
			"target":34962
		},
		{
			"buffer":0,
			"byteLength":505776,
			"byteOffset":10549920,
			"target":34963
		},
		{
			"buffer":0,
			"byteLength":187560,
			"byteOffset":11055696,
			"target":34962
		},
		{
			"buffer":0,
			"byteLength":187560,
			"byteOffset":11243256,
			"target":34962
		},
		{
			"buffer":0,
			"byteLength":54048,
			"byteOffset":11430816,
			"target":34963
		},
		{
			"buffer":0,
			"byteLength":753456,
			"byteOffset":11484864,
			"target":34962
		},
		{
			"buffer":0,
			"byteLength":753456,
			"byteOffset":12238320,
			"target":34962
		},
		{
			"buffer":0,
			"byteLength":160296,
			"byteOffset":12991776,
			"target":34963
		},
		{
			"buffer":0,
			"byteLength":9766296,
			"byteOffset":13152072,
			"target":34962
		},
		{
			"buffer":0,
			"byteLength":9766296,
			"byteOffset":22918368,
			"target":34962
		},
		{
			"buffer":0,
			"byteLength":3894960,
			"byteOffset":32684664,
			"target":34963
		}
	],
	"buffers":[
		{
			"byteLength":36579624,
			"uri":"link7.bin"
		}
	]
}
