{
	"asset":{
		"generator":"Khronos glTF Blender I/O v4.3.47",
		"version":"2.0"
	},
	"scene":0,
	"scenes":[
		{
			"name":"Scene",
			"nodes":[
				0
			]
		}
	],
	"nodes":[
		{
			"mesh":0,
			"name":"node0"
		}
	],
	"materials":[
		{
			"doubleSided":true,
			"name":"Part__Feature003",
			"pbrMetallicRoughness":{
				"baseColorFactor":[
					0.9725490808486938,
					0.9686274528503418,
					0.9294118285179138,
					1
				],
				"metallicFactor":0,
				"roughnessFactor":0.5
			}
		}
	],
	"meshes":[
		{
			"name":"Part__Feature003",
			"primitives":[
				{
					"attributes":{
						"POSITION":0,
						"NORMAL":1
					},
					"indices":2,
					"material":0
				}
			]
		}
	],
	"accessors":[
		{
			"bufferView":0,
			"componentType":5126,
			"count":356711,
			"max":[
				0.08874999731779099,
				0.049605101346969604,
				0.0525439977645874
			],
			"min":[
				-0.04960358142852783,
				-0.08719989657402039,
				-0.05254971981048584
			],
			"type":"VEC3"
		},
		{
			"bufferView":1,
			"componentType":5126,
			"count":356711,
			"type":"VEC3"
		},
		{
			"bufferView":2,
			"componentType":5125,
			"count":360900,
			"type":"SCALAR"
		}
	],
	"bufferViews":[
		{
			"buffer":0,
			"byteLength":4280532,
			"byteOffset":0,
			"target":34962
		},
		{
			"buffer":0,
			"byteLength":4280532,
			"byteOffset":4280532,
			"target":34962
		},
		{
			"buffer":0,
			"byteLength":1443600,
			"byteOffset":8561064,
			"target":34963
		}
	],
	"buffers":[
		{
			"byteLength":10004664,
			"uri":"link4.bin"
		}
	]
}
