{
	"asset":{
		"generator":"Khronos glTF Blender I/O v4.3.47",
		"version":"2.0"
	},
	"scene":0,
	"scenes":[
		{
			"name":"Scene",
			"nodes":[
				0
			]
		}
	],
	"nodes":[
		{
			"mesh":0,
			"name":"node0"
		}
	],
	"materials":[
		{
			"doubleSided":true,
			"name":"Part__Feature007",
			"pbrMetallicRoughness":{
				"baseColorFactor":[
					0.9725490808486938,
					0.9686274528503418,
					0.9294118285179138,
					1
				],
				"metallicFactor":0,
				"roughnessFactor":0.5
			}
		}
	],
	"meshes":[
		{
			"name":"Part__Feature007",
			"primitives":[
				{
					"attributes":{
						"POSITION":0,
						"NORMAL":1
					},
					"indices":2,
					"material":0
				}
			]
		}
	],
	"accessors":[
		{
			"bufferView":0,
			"componentType":5126,
			"count":402906,
			"max":[
				0.19960501790046692,
				0.05256152153015137,
				0.08450010418891907
			],
			"min":[
				0.07875000685453415,
				-0.052545785903930664,
				-0.04960349202156067
			],
			"type":"VEC3"
		},
		{
			"bufferView":1,
			"componentType":5126,
			"count":402906,
			"type":"VEC3"
		},
		{
			"bufferView":2,
			"componentType":5125,
			"count":406950,
			"type":"SCALAR"
		}
	],
	"bufferViews":[
		{
			"buffer":0,
			"byteLength":4834872,
			"byteOffset":0,
			"target":34962
		},
		{
			"buffer":0,
			"byteLength":4834872,
			"byteOffset":4834872,
			"target":34962
		},
		{
			"buffer":0,
			"byteLength":1627800,
			"byteOffset":9669744,
			"target":34963
		}
	],
	"buffers":[
		{
			"byteLength":11297544,
			"uri":"link5.bin"
		}
	]
}
