{
	"asset":{
		"generator":"Khronos glTF Blender I/O v4.3.47",
		"version":"2.0"
	},
	"scene":0,
	"scenes":[
		{
			"name":"Scene",
			"nodes":[
				0,
				1,
				2,
				3
			]
		}
	],
	"nodes":[
		{
			"mesh":0,
			"name":"node61"
		},
		{
			"mesh":1,
			"name":"node63"
		},
		{
			"mesh":2,
			"name":"node131"
		},
		{
			"mesh":3,
			"name":"node133"
		}
	],
	"materials":[
		{
			"doubleSided":true,
			"name":"\u30de\u30c6\u30ea\u30a2\u30eb",
			"pbrMetallicRoughness":{
				"baseColorFactor":[
					0.05000000074505806,
					0.05000000074505806,
					0.05000000074505806,
					1
				],
				"metallicFactor":0,
				"roughnessFactor":0.5
			}
		},
		{
			"doubleSided":true,
			"name":"Part__Feature063.001",
			"pbrMetallicRoughness":{
				"metallicFactor":0,
				"roughnessFactor":0.5
			}
		}
	],
	"meshes":[
		{
			"name":"Part__Feature061",
			"primitives":[
				{
					"attributes":{
						"POSITION":0,
						"NORMAL":1
					},
					"indices":2,
					"material":0
				}
			]
		},
		{
			"name":"Part__Feature063",
			"primitives":[
				{
					"attributes":{
						"POSITION":3,
						"NORMAL":4
					},
					"indices":5,
					"material":1
				}
			]
		},
		{
			"name":"Part__Feature061.001",
			"primitives":[
				{
					"attributes":{
						"POSITION":6,
						"NORMAL":7
					},
					"indices":2,
					"material":0
				}
			]
		},
		{
			"name":"Part__Feature063.001",
			"primitives":[
				{
					"attributes":{
						"POSITION":8,
						"NORMAL":9
					},
					"indices":5,
					"material":1
				}
			]
		}
	],
	"accessors":[
		{
			"bufferView":0,
			"componentType":5126,
			"count":76931,
			"max":[
				0.032899998128414154,
				0.016998909413814545,
				0.04699891060590744
			],
			"min":[
				0.02589999884366989,
				-0.016998909413814545,
				0.009000000543892384
			],
			"type":"VEC3"
		},
		{
			"bufferView":1,
			"componentType":5126,
			"count":76931,
			"type":"VEC3"
		},
		{
			"bufferView":2,
			"componentType":5125,
			"count":82686,
			"type":"SCALAR"
		},
		{
			"bufferView":3,
			"componentType":5126,
			"count":55627,
			"max":[
				0.03189999982714653,
				0.015999220311641693,
				0.04599922150373459
			],
			"min":[
				0.01269999984651804,
				-0.015999220311641693,
				0.0010000000474974513
			],
			"type":"VEC3"
		},
		{
			"bufferView":4,
			"componentType":5126,
			"count":55627,
			"type":"VEC3"
		},
		{
			"bufferView":5,
			"componentType":5123,
			"count":66084,
			"type":"SCALAR"
		},
		{
			"bufferView":6,
			"componentType":5126,
			"count":76931,
			"max":[
				0.032899998128414154,
				0.016998909413814545,
				0.04699891060590744
			],
			"min":[
				0.02589999884366989,
				-0.016998909413814545,
				0.009000000543892384
			],
			"type":"VEC3"
		},
		{
			"bufferView":7,
			"componentType":5126,
			"count":76931,
			"type":"VEC3"
		},
		{
			"bufferView":8,
			"componentType":5126,
			"count":55627,
			"max":[
				0.03189999982714653,
				0.015999220311641693,
				0.04599922150373459
			],
			"min":[
				0.01269999984651804,
				-0.015999220311641693,
				0.0010000000474974513
			],
			"type":"VEC3"
		},
		{
			"bufferView":9,
			"componentType":5126,
			"count":55627,
			"type":"VEC3"
		}
	],
	"bufferViews":[
		{
			"buffer":0,
			"byteLength":923172,
			"byteOffset":0,
			"target":34962
		},
		{
			"buffer":0,
			"byteLength":923172,
			"byteOffset":923172,
			"target":34962
		},
		{
			"buffer":0,
			"byteLength":330744,
			"byteOffset":1846344,
			"target":34963
		},
		{
			"buffer":0,
			"byteLength":667524,
			"byteOffset":2177088,
			"target":34962
		},
		{
			"buffer":0,
			"byteLength":667524,
			"byteOffset":2844612,
			"target":34962
		},
		{
			"buffer":0,
			"byteLength":132168,
			"byteOffset":3512136,
			"target":34963
		},
		{
			"buffer":0,
			"byteLength":923172,
			"byteOffset":3644304,
			"target":34962
		},
		{
			"buffer":0,
			"byteLength":923172,
			"byteOffset":4567476,
			"target":34962
		},
		{
			"buffer":0,
			"byteLength":667524,
			"byteOffset":5490648,
			"target":34962
		},
		{
			"buffer":0,
			"byteLength":667524,
			"byteOffset":6158172,
			"target":34962
		}
	],
	"buffers":[
		{
			"byteLength":6825696,
			"uri":"link8_l.bin"
		}
	]
}
