{
	"asset":{
		"generator":"Khronos glTF Blender I/O v4.3.47",
		"version":"2.0"
	},
	"scene":0,
	"scenes":[
		{
			"name":"Scene",
			"nodes":[
				0
			]
		}
	],
	"nodes":[
		{
			"mesh":0,
			"name":"node0"
		}
	],
	"materials":[
		{
			"doubleSided":true,
			"name":"Part__Feature008",
			"pbrMetallicRoughness":{
				"baseColorFactor":[
					0.9725490808486938,
					0.9686274528503418,
					0.9294118285179138,
					1
				],
				"metallicFactor":0,
				"roughnessFactor":0.5
			}
		}
	],
	"meshes":[
		{
			"name":"Part__Feature008",
			"primitives":[
				{
					"attributes":{
						"POSITION":0,
						"NORMAL":1
					},
					"indices":2,
					"material":0
				}
			]
		}
	],
	"accessors":[
		{
			"bufferView":0,
			"componentType":5126,
			"count":579987,
			"max":[
				0.24839049577713013,
				0.5726914405822754,
				0.07249972969293594
			],
			"min":[
				0.060499999672174454,
				-0.07228422909975052,
				-0.07249971479177475
			],
			"type":"VEC3"
		},
		{
			"bufferView":1,
			"componentType":5126,
			"count":579987,
			"type":"VEC3"
		},
		{
			"bufferView":2,
			"componentType":5125,
			"count":590295,
			"type":"SCALAR"
		}
	],
	"bufferViews":[
		{
			"buffer":0,
			"byteLength":6959844,
			"byteOffset":0,
			"target":34962
		},
		{
			"buffer":0,
			"byteLength":6959844,
			"byteOffset":6959844,
			"target":34962
		},
		{
			"buffer":0,
			"byteLength":2361180,
			"byteOffset":13919688,
			"target":34963
		}
	],
	"buffers":[
		{
			"byteLength":16280868,
			"uri":"link2.bin"
		}
	]
}
