{
	"asset":{
		"generator":"Khronos glTF Blender I/O v4.3.47",
		"version":"2.0"
	},
	"scene":0,
	"scenes":[
		{
			"name":"Scene",
			"nodes":[
				0
			]
		}
	],
	"nodes":[
		{
			"mesh":0,
			"name":"node0"
		}
	],
	"materials":[
		{
			"doubleSided":true,
			"name":"Part__Feature002",
			"pbrMetallicRoughness":{
				"baseColorFactor":[
					0.9725490808486938,
					0.9686274528503418,
					0.9294118285179138,
					1
				],
				"metallicFactor":0,
				"roughnessFactor":0.5
			}
		}
	],
	"meshes":[
		{
			"name":"Part__Feature002",
			"primitives":[
				{
					"attributes":{
						"POSITION":0,
						"NORMAL":1
					},
					"indices":2,
					"material":0
				}
			]
		}
	],
	"accessors":[
		{
			"bufferView":0,
			"componentType":5126,
			"count":263113,
			"max":[
				0.11149999499320984,
				0.2825000286102295,
				0.07250004261732101
			],
			"min":[
				-0.07268133759498596,
				0.101500004529953,
				-0.07249999791383743
			],
			"type":"VEC3"
		},
		{
			"bufferView":1,
			"componentType":5126,
			"count":263113,
			"type":"VEC3"
		},
		{
			"bufferView":2,
			"componentType":5125,
			"count":268968,
			"type":"SCALAR"
		}
	],
	"bufferViews":[
		{
			"buffer":0,
			"byteLength":3157356,
			"byteOffset":0,
			"target":34962
		},
		{
			"buffer":0,
			"byteLength":3157356,
			"byteOffset":3157356,
			"target":34962
		},
		{
			"buffer":0,
			"byteLength":1075872,
			"byteOffset":6314712,
			"target":34963
		}
	],
	"buffers":[
		{
			"byteLength":7390584,
			"uri":"link1.bin"
		}
	]
}
