{
	"asset":{
		"generator":"Khronos glTF Blender I/O v4.3.47",
		"version":"2.0"
	},
	"scene":0,
	"scenes":[
		{
			"name":"Scene",
			"nodes":[
				0
			]
		}
	],
	"nodes":[
		{
			"mesh":0,
			"name":"node0"
		}
	],
	"materials":[
		{
			"doubleSided":true,
			"name":"Part__Feature001",
			"pbrMetallicRoughness":{
				"baseColorFactor":[
					0.9725490808486938,
					0.9686274528503418,
					0.9294118285179138,
					1
				],
				"metallicFactor":0,
				"roughnessFactor":0.5
			}
		}
	],
	"meshes":[
		{
			"name":"Part__Feature001",
			"primitives":[
				{
					"attributes":{
						"POSITION":0,
						"NORMAL":1
					},
					"indices":2,
					"material":0
				}
			]
		}
	],
	"accessors":[
		{
			"bufferView":0,
			"componentType":5126,
			"count":204762,
			"max":[
				0.07050000131130219,
				0.31279999017715454,
				0.06359649449586868
			],
			"min":[
				-0.08443166315555573,
				-0.0635785385966301,
				-0.0635557696223259
			],
			"type":"VEC3"
		},
		{
			"bufferView":1,
			"componentType":5126,
			"count":204762,
			"type":"VEC3"
		},
		{
			"bufferView":2,
			"componentType":5125,
			"count":212442,
			"type":"SCALAR"
		}
	],
	"bufferViews":[
		{
			"buffer":0,
			"byteLength":2457144,
			"byteOffset":0,
			"target":34962
		},
		{
			"buffer":0,
			"byteLength":2457144,
			"byteOffset":2457144,
			"target":34962
		},
		{
			"buffer":0,
			"byteLength":849768,
			"byteOffset":4914288,
			"target":34963
		}
	],
	"buffers":[
		{
			"byteLength":5764056,
			"uri":"link3.bin"
		}
	]
}
