{
	"asset":{
		"generator":"Khronos glTF Blender I/O v4.3.47",
		"version":"2.0"
	},
	"scene":0,
	"scenes":[
		{
			"name":"Scene",
			"nodes":[
				0
			]
		}
	],
	"nodes":[
		{
			"mesh":0,
			"name":"node0",
			"rotation":[
				-1,
				0,
				0,
				4.371138828673793e-08
			],
			"translation":[
				0,
				0,
				-0.004548000171780586
			]
		}
	],
	"materials":[
		{
			"doubleSided":true,
			"name":"Part__Feature.001",
			"pbrMetallicRoughness":{
				"baseColorFactor":[
					0.9607843160629272,
					0.9607843160629272,
					0.9647059440612793,
					1
				],
				"metallicFactor":0,
				"roughnessFactor":0.5
			}
		}
	],
	"meshes":[
		{
			"name":"Part__Feature",
			"primitives":[
				{
					"attributes":{
						"POSITION":0,
						"NORMAL":1
					},
					"indices":2,
					"material":0
				}
			]
		}
	],
	"accessors":[
		{
			"bufferView":0,
			"componentType":5126,
			"count":101842,
			"max":[
				0.08892109990119934,
				0.05779999867081642,
				2.4424909718126996e-17
			],
			"min":[
				-0.08892109990119934,
				-0.09949999302625656,
				-0.013000000268220901
			],
			"type":"VEC3"
		},
		{
			"bufferView":1,
			"componentType":5126,
			"count":101842,
			"type":"VEC3"
		},
		{
			"bufferView":2,
			"componentType":5125,
			"count":143064,
			"type":"SCALAR"
		}
	],
	"bufferViews":[
		{
			"buffer":0,
			"byteLength":1222104,
			"byteOffset":0,
			"target":34962
		},
		{
			"buffer":0,
			"byteLength":1222104,
			"byteOffset":1222104,
			"target":34962
		},
		{
			"buffer":0,
			"byteLength":572256,
			"byteOffset":2444208,
			"target":34963
		}
	],
	"buffers":[
		{
			"byteLength":3016464,
			"uri":"sanko_box_lift_up_end_v2.bin"
		}
	]
}
