{
	"asset":{
		"generator":"Khronos glTF Blender I/O v4.3.47",
		"version":"2.0"
	},
	"scene":0,
	"scenes":[
		{
			"name":"Scene",
			"nodes":[
				0
			]
		}
	],
	"nodes":[
		{
			"mesh":0,
			"name":"node0"
		}
	],
	"materials":[
		{
			"doubleSided":true,
			"name":"Part__Feature",
			"pbrMetallicRoughness":{
				"baseColorFactor":[
					0.6274510025978088,
					0.6274510025978088,
					0.6274510025978088,
					1
				],
				"metallicFactor":0,
				"roughnessFactor":0.5
			}
		}
	],
	"meshes":[
		{
			"name":"Part__Feature",
			"primitives":[
				{
					"attributes":{
						"POSITION":0,
						"NORMAL":1
					},
					"indices":2,
					"material":0
				}
			]
		}
	],
	"accessors":[
		{
			"bufferView":0,
			"componentType":5126,
			"count":27909,
			"max":[
				0.08879705518484116,
				0.057923220098018646,
				0.005450976546853781
			],
			"min":[
				-0.08904517441987991,
				-0.09937678277492523,
				-0.007549045141786337
			],
			"type":"VEC3"
		},
		{
			"bufferView":1,
			"componentType":5126,
			"count":27909,
			"type":"VEC3"
		},
		{
			"bufferView":2,
			"componentType":5123,
			"count":31944,
			"type":"SCALAR"
		}
	],
	"bufferViews":[
		{
			"buffer":0,
			"byteLength":334908,
			"byteOffset":0,
			"target":34962
		},
		{
			"buffer":0,
			"byteLength":334908,
			"byteOffset":334908,
			"target":34962
		},
		{
			"buffer":0,
			"byteLength":63888,
			"byteOffset":669816,
			"target":34963
		}
	],
	"buffers":[
		{
			"byteLength":733704,
			"uri":"sanko_box_lift_up_end.bin"
		}
	]
}
