{
	"asset":{
		"generator":"Khronos glTF Blender I/O v4.3.47",
		"version":"2.0"
	},
	"scene":0,
	"scenes":[
		{
			"name":"Scene",
			"nodes":[
				0
			]
		}
	],
	"nodes":[
		{
			"mesh":0,
			"name":"node11"
		}
	],
	"materials":[
		{
			"doubleSided":true,
			"name":"Part__Feature005.001",
			"pbrMetallicRoughness":{
				"baseColorFactor":[
					0.7490196824073792,
					0.7411764860153198,
					0.7333333492279053,
					1
				],
				"metallicFactor":0,
				"roughnessFactor":0.5
			}
		},
		{
			"doubleSided":true,
			"name":"Part__Feature.001",
			"pbrMetallicRoughness":{
				"baseColorFactor":[
					0.9647059440612793,
					0.9647059440612793,
					0.9529411792755127,
					1
				],
				"metallicFactor":0,
				"roughnessFactor":0.5
			}
		},
		{
			"doubleSided":true,
			"name":"Part__Feature001.001",
			"pbrMetallicRoughness":{
				"baseColorFactor":[
					0.28235292434692383,
					0.9803920984268188,
					0.8156862854957581,
					1
				],
				"metallicFactor":0,
				"roughnessFactor":0.5
			}
		},
		{
			"doubleSided":true,
			"name":"Part__Feature002.001",
			"pbrMetallicRoughness":{
				"baseColorFactor":[
					0.9098039269447327,
					0.6784313917160034,
					0.13725489377975464,
					1
				],
				"metallicFactor":0,
				"roughnessFactor":0.5
			}
		},
		{
			"doubleSided":true,
			"name":"Part__Feature003.001",
			"pbrMetallicRoughness":{
				"baseColorFactor":[
					0.9098039269447327,
					0.6784313917160034,
					0.13725489377975464,
					1
				],
				"metallicFactor":0,
				"roughnessFactor":0.5
			}
		},
		{
			"doubleSided":true,
			"name":"Part__Feature004.001",
			"pbrMetallicRoughness":{
				"baseColorFactor":[
					0.9098039269447327,
					0.6784313917160034,
					0.13725489377975464,
					1
				],
				"metallicFactor":0,
				"roughnessFactor":0.5
			}
		}
	],
	"meshes":[
		{
			"name":"Part__Feature005.001",
			"primitives":[
				{
					"attributes":{
						"POSITION":0,
						"NORMAL":1
					},
					"indices":2,
					"material":0
				},
				{
					"attributes":{
						"POSITION":3,
						"NORMAL":4
					},
					"indices":5,
					"material":1
				},
				{
					"attributes":{
						"POSITION":6,
						"NORMAL":7
					},
					"indices":8,
					"material":2
				},
				{
					"attributes":{
						"POSITION":9,
						"NORMAL":10
					},
					"indices":11,
					"material":3
				},
				{
					"attributes":{
						"POSITION":12,
						"NORMAL":13
					},
					"indices":14,
					"material":4
				},
				{
					"attributes":{
						"POSITION":15,
						"NORMAL":16
					},
					"indices":17,
					"material":5
				}
			]
		}
	],
	"accessors":[
		{
			"bufferView":0,
			"componentType":5126,
			"count":52,
			"max":[
				0.005800005979835987,
				0.0737759992480278,
				0.031413204967975616
			],
			"min":[
				-0.008199995383620262,
				0.046776000410318375,
				0.03101320192217827
			],
			"type":"VEC3"
		},
		{
			"bufferView":1,
			"componentType":5126,
			"count":52,
			"type":"VEC3"
		},
		{
			"bufferView":2,
			"componentType":5123,
			"count":72,
			"type":"SCALAR"
		},
		{
			"bufferView":3,
			"componentType":5126,
			"count":12478,
			"max":[
				0.030565159395337105,
				0.062424998730421066,
				0.010000002570450306
			],
			"min":[
				-0.030574200674891472,
				-0.05542391911149025,
				-2.422656519840416e-09
			],
			"type":"VEC3"
		},
		{
			"bufferView":4,
			"componentType":5126,
			"count":12478,
			"type":"VEC3"
		},
		{
			"bufferView":5,
			"componentType":5123,
			"count":22032,
			"type":"SCALAR"
		},
		{
			"bufferView":6,
			"componentType":5126,
			"count":178702,
			"max":[
				0.03500000759959221,
				0.07957600057125092,
				0.04171319678425789
			],
			"min":[
				-0.034999996423721313,
				-0.055424001067876816,
				0.004999998025596142
			],
			"type":"VEC3"
		},
		{
			"bufferView":7,
			"componentType":5126,
			"count":178702,
			"type":"VEC3"
		},
		{
			"bufferView":8,
			"componentType":5125,
			"count":190548,
			"type":"SCALAR"
		},
		{
			"bufferView":9,
			"componentType":5126,
			"count":33606,
			"max":[
				-0.023500194773077965,
				0.07657600194215775,
				0.024513203650712967
			],
			"min":[
				-0.03250144049525261,
				0.060576263815164566,
				0.02201320230960846
			],
			"type":"VEC3"
		},
		{
			"bufferView":10,
			"componentType":5126,
			"count":33606,
			"type":"VEC3"
		},
		{
			"bufferView":11,
			"componentType":5123,
			"count":34488,
			"type":"SCALAR"
		},
		{
			"bufferView":12,
			"componentType":5126,
			"count":32760,
			"max":[
				0.03250111639499664,
				0.07657600194215775,
				0.024513203650712967
			],
			"min":[
				0.023499995470046997,
				0.06057607755064964,
				0.02201320230960846
			],
			"type":"VEC3"
		},
		{
			"bufferView":13,
			"componentType":5126,
			"count":32760,
			"type":"VEC3"
		},
		{
			"bufferView":14,
			"componentType":5123,
			"count":33660,
			"type":"SCALAR"
		},
		{
			"bufferView":15,
			"componentType":5126,
			"count":73828,
			"max":[
				-0.008127949200570583,
				0.07677599787712097,
				0.03511320427060127
			],
			"min":[
				-0.0553186759352684,
				0.03612599894404411,
				0.027313202619552612
			],
			"type":"VEC3"
		},
		{
			"bufferView":16,
			"componentType":5126,
			"count":73828,
			"type":"VEC3"
		},
		{
			"bufferView":17,
			"componentType":5125,
			"count":80472,
			"type":"SCALAR"
		}
	],
	"bufferViews":[
		{
			"buffer":0,
			"byteLength":624,
			"byteOffset":0,
			"target":34962
		},
		{
			"buffer":0,
			"byteLength":624,
			"byteOffset":624,
			"target":34962
		},
		{
			"buffer":0,
			"byteLength":144,
			"byteOffset":1248,
			"target":34963
		},
		{
			"buffer":0,
			"byteLength":149736,
			"byteOffset":1392,
			"target":34962
		},
		{
			"buffer":0,
			"byteLength":149736,
			"byteOffset":151128,
			"target":34962
		},
		{
			"buffer":0,
			"byteLength":44064,
			"byteOffset":300864,
			"target":34963
		},
		{
			"buffer":0,
			"byteLength":2144424,
			"byteOffset":344928,
			"target":34962
		},
		{
			"buffer":0,
			"byteLength":2144424,
			"byteOffset":2489352,
			"target":34962
		},
		{
			"buffer":0,
			"byteLength":762192,
			"byteOffset":4633776,
			"target":34963
		},
		{
			"buffer":0,
			"byteLength":403272,
			"byteOffset":5395968,
			"target":34962
		},
		{
			"buffer":0,
			"byteLength":403272,
			"byteOffset":5799240,
			"target":34962
		},
		{
			"buffer":0,
			"byteLength":68976,
			"byteOffset":6202512,
			"target":34963
		},
		{
			"buffer":0,
			"byteLength":393120,
			"byteOffset":6271488,
			"target":34962
		},
		{
			"buffer":0,
			"byteLength":393120,
			"byteOffset":6664608,
			"target":34962
		},
		{
			"buffer":0,
			"byteLength":67320,
			"byteOffset":7057728,
			"target":34963
		},
		{
			"buffer":0,
			"byteLength":885936,
			"byteOffset":7125048,
			"target":34962
		},
		{
			"buffer":0,
			"byteLength":885936,
			"byteOffset":8010984,
			"target":34962
		},
		{
			"buffer":0,
			"byteLength":321888,
			"byteOffset":8896920,
			"target":34963
		}
	],
	"buffers":[
		{
			"byteLength":9218808,
			"uri":"ss-cutter2-end.bin"
		}
	]
}
