{
	"asset":{
		"generator":"Khronos glTF Blender I/O v4.3.47",
		"version":"2.0"
	},
	"scene":0,
	"scenes":[
		{
			"name":"Scene",
			"nodes":[
				0,
				1
			]
		}
	],
	"nodes":[
		{
			"mesh":0,
			"name":"node0.001"
		},
		{
			"name":"node1"
		}
	],
	"materials":[
		{
			"doubleSided":true,
			"name":"Part__Feature.001",
			"pbrMetallicRoughness":{
				"baseColorFactor":[
					0.5803921222686768,
					0.5803921222686768,
					0.48235294222831726,
					1
				],
				"metallicFactor":0,
				"roughnessFactor":0.5
			}
		},
		{
			"doubleSided":true,
			"name":"Part__Feature",
			"pbrMetallicRoughness":{
				"metallicFactor":0,
				"roughnessFactor":0.5
			}
		}
	],
	"meshes":[
		{
			"name":"Part__Feature.001",
			"primitives":[
				{
					"attributes":{
						"POSITION":0,
						"NORMAL":1
					},
					"indices":2,
					"material":0
				},
				{
					"attributes":{
						"POSITION":3,
						"NORMAL":4
					},
					"indices":5,
					"material":1
				}
			]
		}
	],
	"accessors":[
		{
			"bufferView":0,
			"componentType":5126,
			"count":137456,
			"max":[
				0.03724999725818634,
				0.03500000014901161,
				0.007250000257045031
			],
			"min":[
				-0.03724999725818634,
				-0.03447435051202774,
				-0.015249999240040779
			],
			"type":"VEC3"
		},
		{
			"bufferView":1,
			"componentType":5126,
			"count":137456,
			"type":"VEC3"
		},
		{
			"bufferView":2,
			"componentType":5125,
			"count":171618,
			"type":"SCALAR"
		},
		{
			"bufferView":3,
			"componentType":5126,
			"count":163168,
			"max":[
				0.03725036233663559,
				0.035000577569007874,
				0.017253320664167404
			],
			"min":[
				-0.03724963963031769,
				-0.03447377309203148,
				-0.003746675793081522
			],
			"type":"VEC3"
		},
		{
			"bufferView":4,
			"componentType":5126,
			"count":163168,
			"type":"VEC3"
		},
		{
			"bufferView":5,
			"componentType":5125,
			"count":199452,
			"type":"SCALAR"
		}
	],
	"bufferViews":[
		{
			"buffer":0,
			"byteLength":1649472,
			"byteOffset":0,
			"target":34962
		},
		{
			"buffer":0,
			"byteLength":1649472,
			"byteOffset":1649472,
			"target":34962
		},
		{
			"buffer":0,
			"byteLength":686472,
			"byteOffset":3298944,
			"target":34963
		},
		{
			"buffer":0,
			"byteLength":1958016,
			"byteOffset":3985416,
			"target":34962
		},
		{
			"buffer":0,
			"byteLength":1958016,
			"byteOffset":5943432,
			"target":34962
		},
		{
			"buffer":0,
			"byteLength":797808,
			"byteOffset":7901448,
			"target":34963
		}
	],
	"buffers":[
		{
			"byteLength":8699256,
			"uri":"wingman.bin"
		}
	]
}
